<mxfile host="app.diagrams.net" agent="Mozilla/5.0 (Windows NT 10.0; Win64; x64) AppleWebKit/537.36 (KHTML, like Gecko) Chrome/126.0.0.0 Safari/537.36" version="24.7.6">
  <diagram name="Page-1" id="uLX01WoLa7j1YR0ZDCTx">
    <mxGraphModel dx="1193" dy="740" grid="1" gridSize="10" guides="1" tooltips="1" connect="1" arrows="1" fold="1" page="1" pageScale="1" pageWidth="850" pageHeight="1100" math="0" shadow="0">
      <root>
        <mxCell id="0" />
        <mxCell id="1" parent="0" />
        <mxCell id="nEaDq3PT5a8Hs3dub6jM-1" value="FLOWMAP MEMESAN MAKANAN" style="swimlane;childLayout=stackLayout;resizeParent=1;resizeParentMax=0;startSize=20;html=1;" vertex="1" parent="1">
          <mxGeometry x="250" y="100" width="306" height="660" as="geometry" />
        </mxCell>
        <mxCell id="nEaDq3PT5a8Hs3dub6jM-2" value="PEMBELI" style="swimlane;startSize=20;html=1;" vertex="1" parent="nEaDq3PT5a8Hs3dub6jM-1">
          <mxGeometry y="20" width="156" height="640" as="geometry" />
        </mxCell>
        <mxCell id="nEaDq3PT5a8Hs3dub6jM-5" value="mulai" style="ellipse;whiteSpace=wrap;html=1;" vertex="1" parent="nEaDq3PT5a8Hs3dub6jM-2">
          <mxGeometry x="58" y="30" width="40" height="20" as="geometry" />
        </mxCell>
        <mxCell id="nEaDq3PT5a8Hs3dub6jM-12" value="" style="endArrow=classic;html=1;rounded=0;exitX=0.5;exitY=1;exitDx=0;exitDy=0;entryX=0.5;entryY=0;entryDx=0;entryDy=0;" edge="1" parent="nEaDq3PT5a8Hs3dub6jM-2" source="nEaDq3PT5a8Hs3dub6jM-5" target="nEaDq3PT5a8Hs3dub6jM-34">
          <mxGeometry width="50" height="50" relative="1" as="geometry">
            <mxPoint x="-130" y="70" as="sourcePoint" />
            <mxPoint x="78.00000000000011" y="70" as="targetPoint" />
          </mxGeometry>
        </mxCell>
        <mxCell id="nEaDq3PT5a8Hs3dub6jM-13" value="" style="endArrow=classic;html=1;rounded=0;exitX=0.51;exitY=0.852;exitDx=0;exitDy=0;entryX=0.5;entryY=0;entryDx=0;entryDy=0;exitPerimeter=0;" edge="1" parent="nEaDq3PT5a8Hs3dub6jM-2" source="nEaDq3PT5a8Hs3dub6jM-34" target="nEaDq3PT5a8Hs3dub6jM-35">
          <mxGeometry width="50" height="50" relative="1" as="geometry">
            <mxPoint x="78.00000000000011" y="100" as="sourcePoint" />
            <mxPoint x="78" y="120" as="targetPoint" />
          </mxGeometry>
        </mxCell>
        <mxCell id="nEaDq3PT5a8Hs3dub6jM-28" value="" style="endArrow=classic;html=1;rounded=0;exitX=0.437;exitY=0.829;exitDx=0;exitDy=0;entryX=0.5;entryY=0;entryDx=0;entryDy=0;exitPerimeter=0;" edge="1" parent="nEaDq3PT5a8Hs3dub6jM-2" source="nEaDq3PT5a8Hs3dub6jM-56" target="nEaDq3PT5a8Hs3dub6jM-57">
          <mxGeometry width="50" height="50" relative="1" as="geometry">
            <mxPoint x="78" y="450" as="sourcePoint" />
            <mxPoint x="78" y="500" as="targetPoint" />
          </mxGeometry>
        </mxCell>
        <mxCell id="nEaDq3PT5a8Hs3dub6jM-30" value="selesai" style="ellipse;whiteSpace=wrap;html=1;" vertex="1" parent="nEaDq3PT5a8Hs3dub6jM-2">
          <mxGeometry x="25.5" y="580" width="52" height="40" as="geometry" />
        </mxCell>
        <mxCell id="nEaDq3PT5a8Hs3dub6jM-31" value="" style="triangle;whiteSpace=wrap;html=1;rotation=90;" vertex="1" parent="nEaDq3PT5a8Hs3dub6jM-2">
          <mxGeometry x="104" y="580" width="34" height="40" as="geometry" />
        </mxCell>
        <mxCell id="nEaDq3PT5a8Hs3dub6jM-32" value="" style="endArrow=classic;html=1;rounded=0;exitX=0.228;exitY=0.968;exitDx=0;exitDy=0;entryX=0.5;entryY=0;entryDx=0;entryDy=0;exitPerimeter=0;" edge="1" parent="nEaDq3PT5a8Hs3dub6jM-2" source="nEaDq3PT5a8Hs3dub6jM-57" target="nEaDq3PT5a8Hs3dub6jM-30">
          <mxGeometry width="50" height="50" relative="1" as="geometry">
            <mxPoint x="48" y="560" as="sourcePoint" />
            <mxPoint x="-40" y="520" as="targetPoint" />
          </mxGeometry>
        </mxCell>
        <mxCell id="nEaDq3PT5a8Hs3dub6jM-33" value="" style="endArrow=classic;html=1;rounded=0;exitX=0.897;exitY=0.796;exitDx=0;exitDy=0;entryX=0;entryY=0.5;entryDx=0;entryDy=0;exitPerimeter=0;" edge="1" parent="nEaDq3PT5a8Hs3dub6jM-2" source="nEaDq3PT5a8Hs3dub6jM-57" target="nEaDq3PT5a8Hs3dub6jM-31">
          <mxGeometry width="50" height="50" relative="1" as="geometry">
            <mxPoint x="108" y="560" as="sourcePoint" />
            <mxPoint x="-50" y="560" as="targetPoint" />
          </mxGeometry>
        </mxCell>
        <mxCell id="nEaDq3PT5a8Hs3dub6jM-34" value="Menu" style="shape=document;whiteSpace=wrap;html=1;boundedLbl=1;" vertex="1" parent="nEaDq3PT5a8Hs3dub6jM-2">
          <mxGeometry x="48" y="70" width="60" height="40" as="geometry" />
        </mxCell>
        <mxCell id="nEaDq3PT5a8Hs3dub6jM-35" value="Menu" style="shape=document;whiteSpace=wrap;html=1;boundedLbl=1;" vertex="1" parent="nEaDq3PT5a8Hs3dub6jM-2">
          <mxGeometry x="48" y="120" width="60" height="40" as="geometry" />
        </mxCell>
        <mxCell id="nEaDq3PT5a8Hs3dub6jM-47" value="Membayar" style="shape=document;whiteSpace=wrap;html=1;boundedLbl=1;" vertex="1" parent="nEaDq3PT5a8Hs3dub6jM-2">
          <mxGeometry x="40.5" y="192.5" width="75" height="45" as="geometry" />
        </mxCell>
        <mxCell id="nEaDq3PT5a8Hs3dub6jM-54" value="Menunggu Pesanan" style="shape=document;whiteSpace=wrap;html=1;boundedLbl=1;" vertex="1" parent="nEaDq3PT5a8Hs3dub6jM-2">
          <mxGeometry x="40" y="310" width="73" height="40" as="geometry" />
        </mxCell>
        <mxCell id="nEaDq3PT5a8Hs3dub6jM-56" value="Mengambil Pesanan" style="shape=document;whiteSpace=wrap;html=1;boundedLbl=1;" vertex="1" parent="nEaDq3PT5a8Hs3dub6jM-2">
          <mxGeometry x="47.5" y="400" width="68" height="40" as="geometry" />
        </mxCell>
        <mxCell id="nEaDq3PT5a8Hs3dub6jM-57" value="Menikmati Pesanan" style="shape=document;whiteSpace=wrap;html=1;boundedLbl=1;" vertex="1" parent="nEaDq3PT5a8Hs3dub6jM-2">
          <mxGeometry x="50.25" y="500" width="55.5" height="50" as="geometry" />
        </mxCell>
        <mxCell id="nEaDq3PT5a8Hs3dub6jM-3" value="KASIR" style="swimlane;startSize=20;html=1;" vertex="1" parent="nEaDq3PT5a8Hs3dub6jM-1">
          <mxGeometry x="156" y="20" width="150" height="640" as="geometry" />
        </mxCell>
        <mxCell id="nEaDq3PT5a8Hs3dub6jM-39" value="Konfirmasi Menu" style="shape=document;whiteSpace=wrap;html=1;boundedLbl=1;" vertex="1" parent="nEaDq3PT5a8Hs3dub6jM-3">
          <mxGeometry x="30" y="120" width="90" height="40" as="geometry" />
        </mxCell>
        <mxCell id="nEaDq3PT5a8Hs3dub6jM-42" value="Total Harga" style="verticalLabelPosition=middle;verticalAlign=middle;html=1;shape=trapezoid;perimeter=trapezoidPerimeter;whiteSpace=wrap;size=0.23;arcSize=10;flipV=1;labelPosition=center;align=center;" vertex="1" parent="nEaDq3PT5a8Hs3dub6jM-3">
          <mxGeometry x="25" y="185" width="100" height="60" as="geometry" />
        </mxCell>
        <mxCell id="nEaDq3PT5a8Hs3dub6jM-51" value="" style="endArrow=classic;html=1;rounded=0;exitX=0.484;exitY=0.924;exitDx=0;exitDy=0;exitPerimeter=0;entryX=0.5;entryY=0;entryDx=0;entryDy=0;" edge="1" parent="nEaDq3PT5a8Hs3dub6jM-3" source="nEaDq3PT5a8Hs3dub6jM-39" target="nEaDq3PT5a8Hs3dub6jM-42">
          <mxGeometry width="50" height="50" relative="1" as="geometry">
            <mxPoint x="254" y="200" as="sourcePoint" />
            <mxPoint x="304" y="150" as="targetPoint" />
          </mxGeometry>
        </mxCell>
        <mxCell id="nEaDq3PT5a8Hs3dub6jM-52" value="Nomor Pesanan" style="shape=document;whiteSpace=wrap;html=1;boundedLbl=1;" vertex="1" parent="nEaDq3PT5a8Hs3dub6jM-3">
          <mxGeometry x="37" y="270" width="70" height="40" as="geometry" />
        </mxCell>
        <mxCell id="nEaDq3PT5a8Hs3dub6jM-55" value="Nomor Pesanan" style="shape=document;whiteSpace=wrap;html=1;boundedLbl=1;" vertex="1" parent="nEaDq3PT5a8Hs3dub6jM-3">
          <mxGeometry x="45" y="350" width="60" height="30" as="geometry" />
        </mxCell>
        <mxCell id="nEaDq3PT5a8Hs3dub6jM-18" value="" style="endArrow=classic;html=1;rounded=0;entryX=0;entryY=0.5;entryDx=0;entryDy=0;exitX=0.489;exitY=0.819;exitDx=0;exitDy=0;exitPerimeter=0;" edge="1" parent="nEaDq3PT5a8Hs3dub6jM-1" source="nEaDq3PT5a8Hs3dub6jM-47" target="nEaDq3PT5a8Hs3dub6jM-52">
          <mxGeometry width="50" height="50" relative="1" as="geometry">
            <mxPoint x="78" y="260" as="sourcePoint" />
            <mxPoint x="178.5" y="310" as="targetPoint" />
            <Array as="points">
              <mxPoint x="78" y="310" />
            </Array>
          </mxGeometry>
        </mxCell>
        <mxCell id="nEaDq3PT5a8Hs3dub6jM-20" value="" style="endArrow=classic;html=1;rounded=0;exitX=0.543;exitY=0.75;exitDx=0;exitDy=0;entryX=1;entryY=0.5;entryDx=0;entryDy=0;exitPerimeter=0;" edge="1" parent="nEaDq3PT5a8Hs3dub6jM-1" source="nEaDq3PT5a8Hs3dub6jM-52" target="nEaDq3PT5a8Hs3dub6jM-54">
          <mxGeometry width="50" height="50" relative="1" as="geometry">
            <mxPoint x="231" y="330" as="sourcePoint" />
            <mxPoint x="134.75" y="350" as="targetPoint" />
            <Array as="points">
              <mxPoint x="230" y="345" />
            </Array>
          </mxGeometry>
        </mxCell>
        <mxCell id="nEaDq3PT5a8Hs3dub6jM-26" value="" style="endArrow=classic;html=1;rounded=0;exitX=0.502;exitY=0.811;exitDx=0;exitDy=0;entryX=0;entryY=0.5;entryDx=0;entryDy=0;exitPerimeter=0;" edge="1" parent="nEaDq3PT5a8Hs3dub6jM-1" source="nEaDq3PT5a8Hs3dub6jM-54" target="nEaDq3PT5a8Hs3dub6jM-55">
          <mxGeometry width="50" height="50" relative="1" as="geometry">
            <mxPoint x="78" y="370" as="sourcePoint" />
            <mxPoint x="186" y="390" as="targetPoint" />
            <Array as="points">
              <mxPoint x="78" y="390" />
            </Array>
          </mxGeometry>
        </mxCell>
        <mxCell id="nEaDq3PT5a8Hs3dub6jM-27" value="" style="endArrow=classic;html=1;rounded=0;exitX=0.508;exitY=0.74;exitDx=0;exitDy=0;entryX=1;entryY=0.5;entryDx=0;entryDy=0;exitPerimeter=0;" edge="1" parent="nEaDq3PT5a8Hs3dub6jM-1" source="nEaDq3PT5a8Hs3dub6jM-55" target="nEaDq3PT5a8Hs3dub6jM-56">
          <mxGeometry width="50" height="50" relative="1" as="geometry">
            <mxPoint x="234.75" y="410" as="sourcePoint" />
            <mxPoint x="138" y="440" as="targetPoint" />
            <Array as="points">
              <mxPoint x="231" y="435" />
            </Array>
          </mxGeometry>
        </mxCell>
        <mxCell id="nEaDq3PT5a8Hs3dub6jM-40" style="edgeStyle=orthogonalEdgeStyle;rounded=0;orthogonalLoop=1;jettySize=auto;html=1;entryX=0;entryY=0.5;entryDx=0;entryDy=0;" edge="1" parent="nEaDq3PT5a8Hs3dub6jM-1" source="nEaDq3PT5a8Hs3dub6jM-35" target="nEaDq3PT5a8Hs3dub6jM-39">
          <mxGeometry relative="1" as="geometry" />
        </mxCell>
        <mxCell id="nEaDq3PT5a8Hs3dub6jM-16" value="" style="endArrow=classic;html=1;rounded=0;exitX=0;exitY=0.5;exitDx=0;exitDy=0;entryX=1;entryY=0.5;entryDx=0;entryDy=0;" edge="1" parent="nEaDq3PT5a8Hs3dub6jM-1" source="nEaDq3PT5a8Hs3dub6jM-42" target="nEaDq3PT5a8Hs3dub6jM-47">
          <mxGeometry width="50" height="50" relative="1" as="geometry">
            <mxPoint x="410" y="395" as="sourcePoint" />
            <mxPoint x="130.5" y="235" as="targetPoint" />
          </mxGeometry>
        </mxCell>
      </root>
    </mxGraphModel>
  </diagram>
</mxfile>
